<svg xmlns:rdf="http://www.w3.org/1999/02/22-rdf-syntax-ns#" xmlns="http://www.w3.org/2000/svg" xmlns:cc="http://creativecommons.org/ns#" xmlns:xlink="http://www.w3.org/1999/xlink" xmlns:dc="http://purl.org/dc/elements/1.1/" xmlns:svg="http://www.w3.org/2000/svg" id="svg2" viewBox="0 0 60 50" version="1.0">
  <defs id="defs4">
    <linearGradient id="linearGradient2546" y2="36.375" gradientUnits="userSpaceOnUse" x2="34.5" gradientTransform="translate(-2 -10.371)" y1="34.75" x1="23.375">
      <stop id="stop9398" stop-color="#ddd" offset="0"/>
      <stop id="stop9400" stop-color="#aaa" offset="1"/>
    </linearGradient>
    <linearGradient id="linearGradient2552" y2="20" gradientUnits="userSpaceOnUse" x2="18.227" gradientTransform="translate(28.625 -9.9961)" y1="19.075" x1="9.1838">
      <stop id="stop8344" stop-color="#ddd" offset="0"/>
      <stop id="stop8346" stop-color="#aaa" offset="1"/>
    </linearGradient>
    <linearGradient id="linearGradient2558" y2="23.625" gradientUnits="userSpaceOnUse" x2="19.75" gradientTransform="translate(-2 -10.371)" y1="18.5" x1="8.125">
      <stop id="stop14268" stop-color="#ddd" offset="0"/>
      <stop id="stop14270" stop-color="#aaa" offset="1"/>
    </linearGradient>
  </defs>
  <g id="layer1">
    <path id="path8364" d="m17.844 10.625c-0.188 0.025-0.369 0.089-0.532 0.187l-14 8c-0.4241 0.245-0.6861 0.698-0.687 1.188v14c-0.0016 0.467 0.2338 0.902 0.625 1.156l12 8c0.435 0.281 0.991 0.293 1.438 0.032l14-8c0.424-0.245 0.686-0.698 0.687-1.188v-14c0.002-0.467-0.234-0.902-0.625-1.156l-12-8c-0.267-0.177-0.588-0.254-0.906-0.219z" fill="#eee" transform="translate(-2.625 -9.9961)"/>
    <path id="rect4447" d="m1.375 10.004l12 8v14l-12-8v-14z" fill="#fff"/>
    <path id="path4450" d="m15.375 2.0039l12 8.0001-14 8-12-8 14-8.0001z" fill="url(#linearGradient2558)"/>
    <path id="path5421" d="m27.375 10.004v14l-14 8v-14l14-8z" fill="#eee"/>
    <path id="path9344" d="m17.844 10.625c-0.188 0.025-0.369 0.089-0.532 0.187l-14 8c-0.4241 0.245-0.6861 0.698-0.687 1.188v14c-0.0016 0.467 0.2338 0.902 0.625 1.156l12 8c0.435 0.281 0.991 0.293 1.438 0.032l14-8c0.424-0.245 0.686-0.698 0.687-1.188v-14c0.002-0.467-0.234-0.902-0.625-1.156l-12-8c-0.267-0.177-0.588-0.254-0.906-0.219z" fill="#ddd" transform="translate(28.625 -9.9961)"/>
    <path id="path9348" d="m32.625 10.004l12 8v14l-12-8v-14z" fill="#ddd"/>
    <path id="path9350" d="m46.625 2.0039l12 8.0001-14 8-12-8 14-8.0001z" fill="url(#linearGradient2552)"/>
    <path id="path9352" d="m58.625 10.004v14l-14 8v-14l14-8z" fill="#ddd"/>
    <path id="path9358" d="m17.844 10.625c-0.188 0.025-0.369 0.089-0.532 0.187l-14 8c-0.4241 0.245-0.6861 0.698-0.687 1.188v14c-0.0016 0.467 0.2338 0.902 0.625 1.156l12 8c0.435 0.281 0.991 0.293 1.438 0.032l14-8c0.424-0.245 0.686-0.698 0.687-1.188v-14c0.002-0.467-0.234-0.902-0.625-1.156l-12-8c-0.267-0.177-0.588-0.254-0.906-0.219z" fill="#ddd" transform="translate(11.901 6.0039)"/>
    <path id="path9362" d="m15.901 26.004l12 8v14l-12-8v-14z" fill="#f0f0f0"/>
    <path id="path9364" d="m29.901 18.004l12 8-14 8-12-8 14-8z" fill="url(#linearGradient2546)"/>
    <path id="path9366" d="m41.901 26.004v14l-14 8v-14l14-8z" fill="#ccc"/>
  </g>
</svg>
